<?xml version="1.0" encoding="UTF-8"?>
<svg version="1.1" xmlns="http://www.w3.org/2000/svg" width="310" height="310">
<path d="M0 0 C0.70640625 0.54914063 1.4128125 1.09828125 2.140625 1.6640625 C19.40194569 15.84731551 26.92687588 36.48813114 30 58 C41.55 58.33 53.1 58.66 65 59 C63.9705624 64.14718799 63.49262673 65.01381089 60.01855469 68.53076172 C59.17387634 69.39450409 58.329198 70.25824646 57.45892334 71.14816284 C56.53919739 72.06606598 55.61947144 72.98396912 54.671875 73.9296875 C53.72077001 74.88856961 52.77011319 75.84789644 51.81988525 76.80764771 C49.82922617 78.81320686 47.83102283 80.81086823 45.82763672 82.80371094 C43.26034133 85.35939191 40.71655076 87.93713739 38.17835617 90.52168083 C36.22251028 92.50696935 34.25300776 94.47825245 32.27927399 96.44574356 C30.87630757 97.85023651 29.48648381 99.267818 28.09686279 100.68551636 C27.23957581 101.53034576 26.38228882 102.37517517 25.49902344 103.24560547 C24.37436676 104.37215042 24.37436676 104.37215042 23.22698975 105.52145386 C21 107 21 107 18.50672913 106.99121094 C15.42138742 105.77120499 13.74013983 104.24134273 11.39331055 101.89501953 C10.51277512 101.02386505 9.63223969 100.15271057 8.72502136 99.25515747 C7.77848225 98.29814239 6.83239187 97.34068331 5.88671875 96.3828125 C4.90803125 95.40428001 3.92867643 94.42641454 2.94868469 93.44918823 C0.90069561 91.4025817 -1.14015871 89.34919131 -3.17602539 87.29052734 C-5.7881705 84.64994171 -8.41565087 82.02527176 -11.04839802 79.40524483 C-13.07086833 77.38972131 -15.08591465 75.36690848 -17.09868431 73.34170151 C-18.06508445 72.3707811 -19.03358892 71.4019506 -20.0042057 70.43524551 C-21.35692849 69.08542628 -22.69888477 67.72484307 -24.0402832 66.36376953 C-24.80685745 65.5917923 -25.5734317 64.81981506 -26.36323547 64.02444458 C-28 62 -28 62 -28 59 C-16.45 59 -4.9 59 7 59 C1.83507178 39.63151918 -4.5835377 24.02683139 -22 13 C-37.13864355 5.02550772 -53.55937815 1.96622998 -70.51953125 5.875 C-78.45088648 8.35814314 -85.32839931 12.07361936 -92 17 C-92.65484375 17.47179687 -93.3096875 17.94359375 -93.984375 18.4296875 C-105.54985614 27.48760857 -111.82937918 42.34422507 -114.6875 56.375 C-116.68469294 79.54243805 -107.7598942 98.83318909 -94 117 C-93.25363281 118.02996094 -92.50726563 119.05992187 -91.73828125 120.12109375 C-80.96068716 134.67529932 -67.86569667 147.31271823 -55 160 C-48.30791537 157.24345894 -41.65014642 151.20850106 -38 145 C-37.07096259 140.85297788 -37.84282044 136.87666741 -38.48828125 132.734375 C-39.36787827 126.31533112 -37.90097258 121.79041847 -34.296875 116.5 C-30.23574455 111.5115248 -26.47087116 107.95371001 -20 107 C-10.82608908 106.30515933 -2.29665124 105.81083039 5.1484375 111.69921875 C10.82176777 116.91171894 13.53321197 121.39711547 14.30859375 129.04296875 C14.62780482 137.29409122 13.77930486 144.66322718 8.19921875 151.06640625 C1.63088187 157.17559725 -5.16000464 159.56622696 -14 160 C-15.41841187 159.88253418 -15.41841187 159.88253418 -16.86547852 159.76269531 C-20.80542718 160.06097634 -21.77455322 161.08153735 -24.4609375 163.91015625 C-25.26273437 164.73580078 -26.06453125 165.56144531 -26.890625 166.41210938 C-27.71046875 167.28673828 -28.5303125 168.16136719 -29.375 169.0625 C-31.00538273 170.76405023 -32.63816791 172.46330199 -34.2734375 174.16015625 C-35.06290771 174.98209473 -35.85237793 175.8040332 -36.66577148 176.65087891 C-39.43642101 179.43920541 -42.3325911 182.02861507 -45.32592773 184.57397461 C-46.81501243 185.84242199 -48.25526863 187.16769174 -49.6875 188.5 C-52 190 -52 190 -54.32421875 189.8359375 C-62.9412034 187.14391602 -70.25825703 177.87906604 -76.484375 171.51953125 C-79.51804515 168.48115043 -82.70326768 165.74727693 -86 163 C-87.6875 161.46875 -87.6875 161.46875 -89 160 C-89 159.34 -89 158.68 -89 158 C-89.66 158 -90.32 158 -91 158 C-92.43549726 156.40665761 -93.79827327 154.74748918 -95.125 153.0625 C-97.96857526 149.4978267 -100.838959 146.03215729 -103.9375 142.6875 C-123.16348851 121.2445983 -138.97064069 93.17660599 -138.1875 63.7109375 C-136.50328354 39.35997452 -128.7959801 18.83576459 -110.75 1.8125 C-79.20579428 -24.95893025 -32.14454594 -26.35852767 0 0 Z " fill="#005A99" transform="translate(199,64)"/>
</svg>
